<?xml version="1.0" encoding="utf-8"?>
<!-- Generator: Adobe Illustrator 16.0.0, SVG Export Plug-In . SVG Version: 6.00 Build 0)  -->
<!DOCTYPE svg PUBLIC "-//W3C//DTD SVG 1.1//EN" "http://www.w3.org/Graphics/SVG/1.1/DTD/svg11.dtd">
<svg version="1.1" id="cancel" xmlns="http://www.w3.org/2000/svg" xmlns:xlink="http://www.w3.org/1999/xlink" x="0px" y="0px"
	 width="200px" height="50px" viewBox="0 0 200 50" enable-background="new 0 0 200 50" xml:space="preserve">
<g id="asdf">
	<g>
		<path d="M121.953,47.525c-1.367,1.367-3.584,1.367-4.952,0L77.717,8.241c-1.368-1.368-1.368-3.584,0-4.952l0.33-0.33
			c1.367-1.368,3.584-1.368,4.952,0l39.284,39.284c1.367,1.368,1.367,3.585,0,4.952L121.953,47.525z"/>
	</g>
</g>
<g id="asd">
	<g>
		<path d="M77.717,47.195c-1.367-1.367-1.367-3.584,0-4.952l39.284-39.284c1.367-1.368,3.584-1.368,4.951,0l0.33,0.33
			c1.368,1.367,1.368,3.584,0,4.952L83,47.525c-1.368,1.367-3.585,1.367-4.952,0L77.717,47.195z"/>
	</g>
</g>
</svg>
